<svg width="89" height="132" viewBox="0 0 89 132" fill="none" xmlns="http://www.w3.org/2000/svg">
<g filter="url(#filter0_d_7_100)">
<path d="M79.3179 30.6279C79.3179 57.6357 48.8632 55.8017 48.8632 74.4737V74.5746C48.8632 76.7287 47.0912 78.4747 44.9051 78.4747H28.2885C26.1024 78.4747 24.3305 76.7287 24.3305 74.5746V73.4733C24.3305 44.6317 51.063 46.4657 51.063 32.9618C51.063 27.1269 46.664 23.6258 39.3887 23.6258C33.47 23.6258 27.4219 26.1759 21.9237 31.3879C20.5147 32.7234 18.3115 32.8078 16.7718 31.6209L5.84376 23.1986C4.00201 21.7792 3.7884 19.0895 5.41654 17.4357C14.54 8.16812 26.3956 2.6199 42.0958 2.6199C66.9668 2.6202 79.3179 15.7905 79.3179 30.6279ZM52.2468 108.817C52.2468 117.152 45.4792 123.988 36.8506 123.988C28.3909 123.988 21.4542 117.152 21.4542 108.817C21.4542 100.481 28.3909 93.6459 36.8506 93.6459C45.4795 93.6459 52.2468 100.481 52.2468 108.817Z" fill="#D9DDE8"/>
<path d="M84.3179 28.6279C84.3179 55.6357 53.8632 53.8017 53.8632 72.4737V72.5746C53.8632 74.7287 52.0912 76.4747 49.9051 76.4747H33.2885C31.1024 76.4747 29.3305 74.7287 29.3305 72.5746V71.4733C29.3305 42.6317 56.063 44.4657 56.063 30.9618C56.063 25.1269 51.664 21.6258 44.3887 21.6258C38.47 21.6258 32.4219 24.1759 26.9237 29.3879C25.5147 30.7234 23.3115 30.8078 21.7718 29.6209L10.8438 21.1986C9.00201 19.7792 8.7884 17.0895 10.4165 15.4357C19.54 6.16812 31.3956 0.619904 47.0958 0.619904C71.9668 0.620204 84.3179 13.7905 84.3179 28.6279ZM57.2468 106.817C57.2468 115.152 50.4792 121.988 41.8506 121.988C33.3909 121.988 26.4542 115.152 26.4542 106.817C26.4542 98.4811 33.3909 91.6459 41.8506 91.6459C50.4795 91.6459 57.2468 98.4811 57.2468 106.817Z" fill="#7546FE" fill-opacity="0.89"/>
</g>
<defs>
<filter id="filter0_d_7_100" x="0.317871" y="0.619904" width="88" height="131.368" filterUnits="userSpaceOnUse" color-interpolation-filters="sRGB">
<feFlood flood-opacity="0" result="BackgroundImageFix"/>
<feColorMatrix in="SourceAlpha" type="matrix" values="0 0 0 0 0 0 0 0 0 0 0 0 0 0 0 0 0 0 127 0" result="hardAlpha"/>
<feOffset dy="4"/>
<feGaussianBlur stdDeviation="2"/>
<feComposite in2="hardAlpha" operator="out"/>
<feColorMatrix type="matrix" values="0 0 0 0 0 0 0 0 0 0 0 0 0 0 0 0 0 0 0.25 0"/>
<feBlend mode="normal" in2="BackgroundImageFix" result="effect1_dropShadow_7_100"/>
<feBlend mode="normal" in="SourceGraphic" in2="effect1_dropShadow_7_100" result="shape"/>
</filter>
</defs>
</svg>
