<svg width="85" height="139" viewBox="0 0 85 139" fill="none" xmlns="http://www.w3.org/2000/svg">
<g filter="url(#filter0_d_7_99)">
<path d="M79.8751 34.9929C79.8751 62.4967 49.4203 60.6291 49.4203 79.644V79.7467C49.4203 81.9403 47.6484 83.7184 45.4623 83.7184H28.8457C26.6596 83.7184 24.8876 81.9403 24.8876 79.7467V78.6251C24.8876 49.254 51.6201 51.1216 51.6201 37.3697C51.6201 31.4276 47.2212 27.8623 39.9459 27.8623C34.0272 27.8623 27.9791 30.4592 22.4809 35.7669C21.0719 37.1269 18.8687 37.2129 17.329 36.0041L6.40095 27.4272C4.5592 25.9818 4.34559 23.2426 5.97373 21.5584C15.0972 12.1207 26.9527 6.47061 42.653 6.47061C67.524 6.47092 79.8751 19.8831 79.8751 34.9929ZM52.804 114.618C52.804 123.106 46.0364 130.067 37.4078 130.067C28.9481 130.067 22.0113 123.106 22.0113 114.618C22.0113 106.129 28.9481 99.1683 37.4078 99.1683C46.0367 99.1683 52.804 106.129 52.804 114.618Z" fill="#D9DDE8"/>
<path d="M80.8751 28.9929C80.8751 56.4967 50.4203 54.6291 50.4203 73.644V73.7467C50.4203 75.9403 48.6484 77.7184 46.4623 77.7184H29.8457C27.6596 77.7184 25.8876 75.9403 25.8876 73.7467V72.6251C25.8876 43.254 52.6201 45.1216 52.6201 31.3697C52.6201 25.4276 48.2212 21.8623 40.9459 21.8623C35.0272 21.8623 28.9791 24.4592 23.4809 29.7669C22.0719 31.1269 19.8687 31.2129 18.329 30.0041L7.40095 21.4272C5.5592 19.9818 5.34559 17.2426 6.97373 15.5584C16.0972 6.12071 27.9527 0.470612 43.653 0.470612C68.524 0.470917 80.8751 13.8831 80.8751 28.9929ZM53.804 108.618C53.804 117.106 47.0364 124.067 38.4078 124.067C29.9481 124.067 23.0113 117.106 23.0113 108.618C23.0113 100.129 29.9481 93.1683 38.4078 93.1683C47.0367 93.1683 53.804 100.129 53.804 108.618Z" fill="#7546FE" fill-opacity="0.89"/>
</g>
<defs>
<filter id="filter0_d_7_99" x="0.875061" y="0.470612" width="84" height="137.596" filterUnits="userSpaceOnUse" color-interpolation-filters="sRGB">
<feFlood flood-opacity="0" result="BackgroundImageFix"/>
<feColorMatrix in="SourceAlpha" type="matrix" values="0 0 0 0 0 0 0 0 0 0 0 0 0 0 0 0 0 0 127 0" result="hardAlpha"/>
<feOffset dy="4"/>
<feGaussianBlur stdDeviation="2"/>
<feComposite in2="hardAlpha" operator="out"/>
<feColorMatrix type="matrix" values="0 0 0 0 0 0 0 0 0 0 0 0 0 0 0 0 0 0 0.25 0"/>
<feBlend mode="normal" in2="BackgroundImageFix" result="effect1_dropShadow_7_99"/>
<feBlend mode="normal" in="SourceGraphic" in2="effect1_dropShadow_7_99" result="shape"/>
</filter>
</defs>
</svg>
