<svg width="133" height="229" viewBox="0 0 133 229" fill="none" xmlns="http://www.w3.org/2000/svg">
<g filter="url(#filter0_d_7_103)">
<path d="M62.6373 220.98C73.477 220.98 82.2642 212.192 82.2642 201.353C82.2642 190.513 73.477 181.726 62.6373 181.726C51.7977 181.726 43.0104 190.513 43.0104 201.353C43.0104 212.192 51.7977 220.98 62.6373 220.98Z" fill="url(#paint0_linear_7_103)"/>
<path d="M62.6373 220.98C73.477 220.98 82.2642 212.192 82.2642 201.353C82.2642 190.513 73.477 181.726 62.6373 181.726C51.7977 181.726 43.0104 190.513 43.0104 201.353C43.0104 212.192 51.7977 220.98 62.6373 220.98Z" fill="url(#paint1_radial_7_103)"/>
<path d="M62.6373 220.98C73.477 220.98 82.2642 212.192 82.2642 201.353C82.2642 190.513 73.477 181.726 62.6373 181.726C51.7977 181.726 43.0104 190.513 43.0104 201.353C43.0104 212.192 51.7977 220.98 62.6373 220.98Z" fill="url(#paint2_radial_7_103)"/>
<g filter="url(#filter1_ii_7_103)">
<path fill-rule="evenodd" clip-rule="evenodd" d="M60.4785 41.8249C53.0516 43.5914 49.0948 46.9672 46.8495 50.0682C44.3373 53.5226 43.2539 57.6442 43.2539 61.1143C43.2539 66.3197 41.186 71.3119 37.5053 74.9926C33.8245 78.6734 28.8323 80.7412 23.6269 80.7412C18.4215 80.7412 13.4294 78.6734 9.74859 74.9926C6.06783 71.3119 4 66.3197 4 61.1143C4 39.1871 17.4719 11.3404 52.1566 3.4582C52.412 3.40074 52.6685 3.34839 52.926 3.30119C75.599 -0.906827 95.3987 5.30313 109.295 18.8693C122.664 31.9173 129 50.1939 129 67.9837C129 85.6715 123.921 100.109 112.38 112.364C104.435 120.804 93.8913 127.618 82.1387 134.048V149.679C82.1387 154.884 80.0709 159.876 76.3901 163.557C72.7094 167.238 67.7172 169.306 62.5118 169.306C57.3064 169.306 52.3142 167.238 48.6335 163.557C44.9527 159.876 42.8849 154.884 42.8849 149.679V122.201C42.8863 118.587 43.8854 115.044 45.7721 111.962C47.6589 108.88 50.3599 106.378 53.5776 104.733C69.97 96.3485 78.7551 90.8138 83.8031 85.4595C87.595 81.4321 89.7461 77.0435 89.7461 67.9837C89.7461 59.0338 86.5273 51.4971 81.8797 46.9593C77.8287 43.0025 71.3047 39.9172 60.4785 41.8249Z" fill="url(#paint3_linear_7_103)"/>
</g>
<g filter="url(#filter2_f_7_103)">
<path d="M28.3926 56.9692C28.3926 42.6179 37.3268 23.9724 62.5827 18.4533C97.6757 12.1962 117.577 37.0989 117.577 63.8307C117.577 90.5783 102.52 101.499 68.8398 118.056V149.506" stroke="url(#paint4_linear_7_103)" stroke-width="1.5625" stroke-linecap="round" stroke-linejoin="round"/>
<path d="M28.3926 56.9692C28.3926 42.6179 37.3268 23.9724 62.5827 18.4533C97.6757 12.1962 117.577 37.0989 117.577 63.8307C117.577 90.5783 102.52 101.499 68.8398 118.056V149.506" stroke="url(#paint5_linear_7_103)" stroke-width="1.5625" stroke-linecap="round" stroke-linejoin="round"/>
</g>
<path d="M62.6373 218.98C73.477 218.98 82.2642 210.192 82.2642 199.353C82.2642 188.513 73.477 179.726 62.6373 179.726C51.7977 179.726 43.0104 188.513 43.0104 199.353C43.0104 210.192 51.7977 218.98 62.6373 218.98Z" fill="url(#paint6_linear_7_103)"/>
<path d="M62.6373 218.98C73.477 218.98 82.2642 210.192 82.2642 199.353C82.2642 188.513 73.477 179.726 62.6373 179.726C51.7977 179.726 43.0104 188.513 43.0104 199.353C43.0104 210.192 51.7977 218.98 62.6373 218.98Z" fill="url(#paint7_radial_7_103)"/>
<path d="M62.6373 218.98C73.477 218.98 82.2642 210.192 82.2642 199.353C82.2642 188.513 73.477 179.726 62.6373 179.726C51.7977 179.726 43.0104 188.513 43.0104 199.353C43.0104 210.192 51.7977 218.98 62.6373 218.98Z" fill="url(#paint8_radial_7_103)"/>
<g filter="url(#filter3_ii_7_103)">
<path fill-rule="evenodd" clip-rule="evenodd" d="M60.4785 39.8249C53.0516 41.5914 49.0948 44.9672 46.8495 48.0682C44.3373 51.5226 43.2539 55.6442 43.2539 59.1143C43.2539 64.3197 41.186 69.3119 37.5053 72.9926C33.8245 76.6734 28.8323 78.7412 23.6269 78.7412C18.4215 78.7412 13.4294 76.6734 9.74859 72.9926C6.06783 69.3119 4 64.3197 4 59.1143C4 37.1871 17.4719 9.34038 52.1566 1.4582C52.412 1.40074 52.6685 1.34839 52.926 1.30119C75.599 -2.90683 95.3987 3.30313 109.295 16.8693C122.664 29.9173 129 48.1939 129 65.9837C129 83.6715 123.921 98.1091 112.38 110.364C104.435 118.804 93.8913 125.618 82.1387 132.048V147.679C82.1387 152.884 80.0709 157.876 76.3901 161.557C72.7094 165.238 67.7172 167.306 62.5118 167.306C57.3064 167.306 52.3142 165.238 48.6335 161.557C44.9527 157.876 42.8849 152.884 42.8849 147.679V120.201C42.8863 116.587 43.8854 113.044 45.7721 109.962C47.6589 106.88 50.3599 104.378 53.5776 102.733C69.97 94.3485 78.7551 88.8138 83.8031 83.4595C87.595 79.4321 89.7461 75.0435 89.7461 65.9837C89.7461 57.0338 86.5273 49.4971 81.8797 44.9593C77.8287 41.0025 71.3047 37.9172 60.4785 39.8249Z" fill="url(#paint9_linear_7_103)"/>
</g>
<g filter="url(#filter4_f_7_103)">
<path d="M28.3926 54.9692C28.3926 40.6179 37.3268 21.9724 62.5827 16.4533C97.6757 10.1962 117.577 35.0989 117.577 61.8307C117.577 88.5783 102.52 99.4987 68.8398 116.056V147.506" stroke="url(#paint10_linear_7_103)" stroke-width="1.5625" stroke-linecap="round" stroke-linejoin="round"/>
<path d="M28.3926 54.9692C28.3926 40.6179 37.3268 21.9724 62.5827 16.4533C97.6757 10.1962 117.577 35.0989 117.577 61.8307C117.577 88.5783 102.52 99.4987 68.8398 116.056V147.506" stroke="url(#paint11_linear_7_103)" stroke-width="1.5625" stroke-linecap="round" stroke-linejoin="round"/>
</g>
</g>
<defs>
<filter id="filter0_d_7_103" x="0" y="0" width="133" height="228.98" filterUnits="userSpaceOnUse" color-interpolation-filters="sRGB">
<feFlood flood-opacity="0" result="BackgroundImageFix"/>
<feColorMatrix in="SourceAlpha" type="matrix" values="0 0 0 0 0 0 0 0 0 0 0 0 0 0 0 0 0 0 127 0" result="hardAlpha"/>
<feOffset dy="4"/>
<feGaussianBlur stdDeviation="2"/>
<feComposite in2="hardAlpha" operator="out"/>
<feColorMatrix type="matrix" values="0 0 0 0 0 0 0 0 0 0 0 0 0 0 0 0 0 0 0.25 0"/>
<feBlend mode="normal" in2="BackgroundImageFix" result="effect1_dropShadow_7_103"/>
<feBlend mode="normal" in="SourceGraphic" in2="effect1_dropShadow_7_103" result="shape"/>
</filter>
<filter id="filter1_ii_7_103" x="4" y="1.41406" width="125.586" height="168.478" filterUnits="userSpaceOnUse" color-interpolation-filters="sRGB">
<feFlood flood-opacity="0" result="BackgroundImageFix"/>
<feBlend mode="normal" in="SourceGraphic" in2="BackgroundImageFix" result="shape"/>
<feColorMatrix in="SourceAlpha" type="matrix" values="0 0 0 0 0 0 0 0 0 0 0 0 0 0 0 0 0 0 127 0" result="hardAlpha"/>
<feOffset dx="0.585938" dy="0.585938"/>
<feGaussianBlur stdDeviation="0.585938"/>
<feComposite in2="hardAlpha" operator="arithmetic" k2="-1" k3="1"/>
<feColorMatrix type="matrix" values="0 0 0 0 0.776471 0 0 0 0 0.768627 0 0 0 0 0.784314 0 0 0 1 0"/>
<feBlend mode="normal" in2="shape" result="effect1_innerShadow_7_103"/>
<feColorMatrix in="SourceAlpha" type="matrix" values="0 0 0 0 0 0 0 0 0 0 0 0 0 0 0 0 0 0 127 0" result="hardAlpha"/>
<feOffset dy="-0.585938"/>
<feGaussianBlur stdDeviation="0.390625"/>
<feComposite in2="hardAlpha" operator="arithmetic" k2="-1" k3="1"/>
<feColorMatrix type="matrix" values="0 0 0 0 0.729412 0 0 0 0 0.67451 0 0 0 0 0.835294 0 0 0 1 0"/>
<feBlend mode="normal" in2="effect1_innerShadow_7_103" result="effect2_innerShadow_7_103"/>
</filter>
<filter id="filter2_f_7_103" x="26.4395" y="15.5259" width="93.091" height="135.933" filterUnits="userSpaceOnUse" color-interpolation-filters="sRGB">
<feFlood flood-opacity="0" result="BackgroundImageFix"/>
<feBlend mode="normal" in="SourceGraphic" in2="BackgroundImageFix" result="shape"/>
<feGaussianBlur stdDeviation="0.585938" result="effect1_foregroundBlur_7_103"/>
</filter>
<filter id="filter3_ii_7_103" x="4" y="-0.585938" width="125.586" height="168.478" filterUnits="userSpaceOnUse" color-interpolation-filters="sRGB">
<feFlood flood-opacity="0" result="BackgroundImageFix"/>
<feBlend mode="normal" in="SourceGraphic" in2="BackgroundImageFix" result="shape"/>
<feColorMatrix in="SourceAlpha" type="matrix" values="0 0 0 0 0 0 0 0 0 0 0 0 0 0 0 0 0 0 127 0" result="hardAlpha"/>
<feOffset dx="0.585938" dy="0.585938"/>
<feGaussianBlur stdDeviation="0.585938"/>
<feComposite in2="hardAlpha" operator="arithmetic" k2="-1" k3="1"/>
<feColorMatrix type="matrix" values="0 0 0 0 0.776471 0 0 0 0 0.768627 0 0 0 0 0.784314 0 0 0 1 0"/>
<feBlend mode="normal" in2="shape" result="effect1_innerShadow_7_103"/>
<feColorMatrix in="SourceAlpha" type="matrix" values="0 0 0 0 0 0 0 0 0 0 0 0 0 0 0 0 0 0 127 0" result="hardAlpha"/>
<feOffset dy="-0.585938"/>
<feGaussianBlur stdDeviation="0.390625"/>
<feComposite in2="hardAlpha" operator="arithmetic" k2="-1" k3="1"/>
<feColorMatrix type="matrix" values="0 0 0 0 0.729412 0 0 0 0 0.67451 0 0 0 0 0.835294 0 0 0 1 0"/>
<feBlend mode="normal" in2="effect1_innerShadow_7_103" result="effect2_innerShadow_7_103"/>
</filter>
<filter id="filter4_f_7_103" x="26.4395" y="13.5259" width="93.091" height="135.933" filterUnits="userSpaceOnUse" color-interpolation-filters="sRGB">
<feFlood flood-opacity="0" result="BackgroundImageFix"/>
<feBlend mode="normal" in="SourceGraphic" in2="BackgroundImageFix" result="shape"/>
<feGaussianBlur stdDeviation="0.585938" result="effect1_foregroundBlur_7_103"/>
</filter>
<linearGradient id="paint0_linear_7_103" x1="62.6373" y1="191.264" x2="62.6373" y2="220.98" gradientUnits="userSpaceOnUse">
<stop stop-color="#ECE6F8"/>
<stop offset="1" stop-color="#C0ADE6"/>
</linearGradient>
<radialGradient id="paint1_radial_7_103" cx="0" cy="0" r="1" gradientUnits="userSpaceOnUse" gradientTransform="translate(71.8257 194.911) rotate(-43.835) scale(14.4756 12.727)">
<stop stop-color="#FFFEFF"/>
<stop offset="1" stop-color="#E7DEFB" stop-opacity="0"/>
</radialGradient>
<radialGradient id="paint2_radial_7_103" cx="0" cy="0" r="1" gradientUnits="userSpaceOnUse" gradientTransform="translate(43.0104 186.358) rotate(25.9892) scale(21.835 59.121)">
<stop stop-color="#D1CCDC"/>
<stop offset="1" stop-color="#D1CCDC" stop-opacity="0"/>
</radialGradient>
<linearGradient id="paint3_linear_7_103" x1="66.5" y1="5.78988" x2="66.5" y2="169.306" gradientUnits="userSpaceOnUse">
<stop stop-color="#DAD6E3"/>
<stop offset="1" stop-color="#CCC2E3"/>
</linearGradient>
<linearGradient id="paint4_linear_7_103" x1="120.38" y1="40.1685" x2="83.3402" y2="72.0191" gradientUnits="userSpaceOnUse">
<stop offset="0.103" stop-color="#F6F4F9"/>
<stop offset="1" stop-color="#F6F4F9" stop-opacity="0"/>
</linearGradient>
<linearGradient id="paint5_linear_7_103" x1="90.2724" y1="152.042" x2="90.2724" y2="87.4616" gradientUnits="userSpaceOnUse">
<stop stop-color="#EFE8FF"/>
<stop offset="1" stop-color="#EFE8FF" stop-opacity="0"/>
</linearGradient>
<linearGradient id="paint6_linear_7_103" x1="62.6373" y1="189.264" x2="62.6373" y2="218.98" gradientUnits="userSpaceOnUse">
<stop stop-color="#7546FE"/>
<stop offset="1" stop-color="#C0ADE6"/>
</linearGradient>
<radialGradient id="paint7_radial_7_103" cx="0" cy="0" r="1" gradientUnits="userSpaceOnUse" gradientTransform="translate(71.8257 192.911) rotate(-43.835) scale(14.4756 12.727)">
<stop stop-color="#FFFEFF"/>
<stop offset="1" stop-color="#E7DEFB" stop-opacity="0"/>
</radialGradient>
<radialGradient id="paint8_radial_7_103" cx="0" cy="0" r="1" gradientUnits="userSpaceOnUse" gradientTransform="translate(43.0104 184.358) rotate(25.9892) scale(21.835 59.121)">
<stop stop-color="#D1CCDC"/>
<stop offset="1" stop-color="#D1CCDC" stop-opacity="0"/>
</radialGradient>
<linearGradient id="paint9_linear_7_103" x1="66.5" y1="3.78988" x2="66.5" y2="167.306" gradientUnits="userSpaceOnUse">
<stop stop-color="#7546FE"/>
<stop offset="1" stop-color="#CCC2E3"/>
</linearGradient>
<linearGradient id="paint10_linear_7_103" x1="120.38" y1="38.1685" x2="83.3402" y2="70.0191" gradientUnits="userSpaceOnUse">
<stop offset="0.103" stop-color="#F6F4F9"/>
<stop offset="1" stop-color="#F6F4F9" stop-opacity="0"/>
</linearGradient>
<linearGradient id="paint11_linear_7_103" x1="90.2724" y1="150.042" x2="90.2724" y2="85.4616" gradientUnits="userSpaceOnUse">
<stop stop-color="#EFE8FF"/>
<stop offset="1" stop-color="#EFE8FF" stop-opacity="0"/>
</linearGradient>
</defs>
</svg>
